<?xml version="1.0" encoding="UTF-8"?>
<svg id="katman_1" xmlns="http://www.w3.org/2000/svg" xmlns:xlink="http://www.w3.org/1999/xlink" version="1.1" viewBox="0 0 178.03 40.2">
  <!-- Generator: Adobe Illustrator 30.5.1, SVG Export Plug-In . SVG Version: 2.1.4 Build 3)  -->
  <defs>
    <style>
      .st0 {
        fill: url(#Adsız_degrade_101);
      }

      .st1 {
        fill: url(#Adsız_degrade_109);
      }

      .st2 {
        fill: url(#Adsız_degrade_105);
      }

      .st3 {
        fill: url(#Adsız_degrade_102);
      }

      .st4 {
        fill: url(#Adsız_degrade_104);
      }

      .st5 {
        fill: url(#Adsız_degrade_107);
      }

      .st6 {
        fill: url(#Adsız_degrade_103);
      }

      .st7 {
        fill: url(#Adsız_degrade_106);
      }

      .st8 {
        fill: url(#Adsız_degrade_108);
      }

      .st9 {
        fill: url(#Adsız_degrade_10);
      }

      .st10 {
        fill: url(#Adsız_degrade_1017);
        fill-rule: evenodd;
      }

      .st11 {
        fill: url(#Adsız_degrade_1027);
      }

      .st12 {
        fill: url(#Adsız_degrade_1026);
      }

      .st13 {
        fill: url(#Adsız_degrade_1021);
      }

      .st14 {
        fill: url(#Adsız_degrade_1020);
      }

      .st15 {
        fill: url(#Adsız_degrade_1023);
      }

      .st16 {
        fill: url(#Adsız_degrade_1022);
      }

      .st17 {
        fill: url(#Adsız_degrade_1025);
      }

      .st18 {
        fill: url(#Adsız_degrade_1024);
      }

      .st19 {
        fill: url(#Adsız_degrade_1010);
      }

      .st20 {
        fill: url(#Adsız_degrade_1014);
      }

      .st21 {
        fill: url(#Adsız_degrade_1013);
      }

      .st22 {
        fill: url(#Adsız_degrade_1012);
      }

      .st23 {
        fill: url(#Adsız_degrade_1015);
      }

      .st24 {
        fill: url(#Adsız_degrade_1011);
      }

      .st25 {
        fill: url(#Adsız_degrade_1018);
      }

      .st26 {
        fill: url(#Adsız_degrade_1016);
      }

      .st27 {
        fill: url(#Adsız_degrade_1019);
      }
    </style>
    <linearGradient id="Adsız_degrade_10" data-name="Adsız degrade 10" x1="-25.87" y1="42.68" x2="159.67" y2="-9.9" gradientUnits="userSpaceOnUse">
      <stop offset="0" stop-color="#af59c2"/>
      <stop offset="1" stop-color="#6e63eb"/>
    </linearGradient>
    <linearGradient id="Adsız_degrade_101" data-name="Adsız degrade 10" x1="-25.99" y1="42.28" x2="159.56" y2="-10.3" xlink:href="#Adsız_degrade_10"/>
    <linearGradient id="Adsız_degrade_102" data-name="Adsız degrade 10" x1="45.34" y1="20.82" x2="56.26" y2="17.73" xlink:href="#Adsız_degrade_10"/>
    <linearGradient id="Adsız_degrade_103" data-name="Adsız degrade 10" x1="-26.2" y1="41.53" x2="159.35" y2="-11.05" xlink:href="#Adsız_degrade_10"/>
    <linearGradient id="Adsız_degrade_104" data-name="Adsız degrade 10" x1="-26.09" y1="41.91" x2="159.45" y2="-10.66" xlink:href="#Adsız_degrade_10"/>
    <linearGradient id="Adsız_degrade_105" data-name="Adsız degrade 10" x1="-26.39" y1="40.86" x2="159.16" y2="-11.72" xlink:href="#Adsız_degrade_10"/>
    <linearGradient id="Adsız_degrade_106" data-name="Adsız degrade 10" x1="-26.26" y1="41.32" x2="92.06" y2="7.8" xlink:href="#Adsız_degrade_10"/>
    <linearGradient id="Adsız_degrade_107" data-name="Adsız degrade 10" x1="-26.14" y1="41.72" x2="159.4" y2="-10.85" xlink:href="#Adsız_degrade_10"/>
    <linearGradient id="Adsız_degrade_108" data-name="Adsız degrade 10" x1="-25.93" y1="42.48" x2="159.62" y2="-10.09" xlink:href="#Adsız_degrade_10"/>
    <linearGradient id="Adsız_degrade_109" data-name="Adsız degrade 10" x1="-26.04" y1="42.1" x2="159.51" y2="-10.47" xlink:href="#Adsız_degrade_10"/>
    <linearGradient id="Adsız_degrade_1010" data-name="Adsız degrade 10" x1="-30.32" y1="27.01" x2="155.23" y2="-25.57" xlink:href="#Adsız_degrade_10"/>
    <linearGradient id="Adsız_degrade_1011" data-name="Adsız degrade 10" x1="-25.55" y1="43.83" x2="160" y2="-8.75" xlink:href="#Adsız_degrade_10"/>
    <linearGradient id="Adsız_degrade_1012" data-name="Adsız degrade 10" x1="-27.5" y1="36.94" x2="158.05" y2="-15.63" xlink:href="#Adsız_degrade_10"/>
    <linearGradient id="Adsız_degrade_1013" data-name="Adsız degrade 10" x1="-25.33" y1="44.59" x2="160.21" y2="-7.98" xlink:href="#Adsız_degrade_10"/>
    <linearGradient id="Adsız_degrade_1014" data-name="Adsız degrade 10" x1="-25.52" y1="43.93" x2="160.03" y2="-8.64" xlink:href="#Adsız_degrade_10"/>
    <linearGradient id="Adsız_degrade_1015" data-name="Adsız degrade 10" x1="-25.59" y1="43.67" x2="159.95" y2="-8.9" xlink:href="#Adsız_degrade_10"/>
    <linearGradient id="Adsız_degrade_1016" data-name="Adsız degrade 10" x1="-27.8" y1="35.88" x2="157.74" y2="-16.7" xlink:href="#Adsız_degrade_10"/>
    <linearGradient id="Adsız_degrade_1017" data-name="Adsız degrade 10" x1="-26.8" y1="39.41" x2="158.75" y2="-13.16" xlink:href="#Adsız_degrade_10"/>
    <linearGradient id="Adsız_degrade_1018" data-name="Adsız degrade 10" x1="-25.25" y1="44.87" x2="160.29" y2="-7.71" xlink:href="#Adsız_degrade_10"/>
    <linearGradient id="Adsız_degrade_1019" data-name="Adsız degrade 10" x1="-23.44" y1="51.26" x2="162.1" y2="-1.32" xlink:href="#Adsız_degrade_10"/>
    <linearGradient id="Adsız_degrade_1020" data-name="Adsız degrade 10" x1="-22.8" y1="53.54" x2="162.75" y2=".96" xlink:href="#Adsız_degrade_10"/>
    <linearGradient id="Adsız_degrade_1021" data-name="Adsız degrade 10" x1="-22.14" y1="55.87" x2="163.41" y2="3.3" xlink:href="#Adsız_degrade_10"/>
    <linearGradient id="Adsız_degrade_1022" data-name="Adsız degrade 10" x1="-21.66" y1="57.55" x2="163.88" y2="4.97" xlink:href="#Adsız_degrade_10"/>
    <linearGradient id="Adsız_degrade_1023" data-name="Adsız degrade 10" x1="-20.86" y1="60.36" x2="164.68" y2="7.78" xlink:href="#Adsız_degrade_10"/>
    <linearGradient id="Adsız_degrade_1024" data-name="Adsız degrade 10" x1="-19.68" y1="64.55" x2="165.87" y2="11.98" xlink:href="#Adsız_degrade_10"/>
    <linearGradient id="Adsız_degrade_1025" data-name="Adsız degrade 10" x1="-18.51" y1="68.66" x2="167.03" y2="16.08" xlink:href="#Adsız_degrade_10"/>
    <linearGradient id="Adsız_degrade_1026" data-name="Adsız degrade 10" x1="-18.66" y1="68.14" x2="166.88" y2="15.56" xlink:href="#Adsız_degrade_10"/>
    <linearGradient id="Adsız_degrade_1027" data-name="Adsız degrade 10" x1="-17.04" y1="73.84" x2="168.5" y2="21.27" xlink:href="#Adsız_degrade_10"/>
  </defs>
  <path class="st9" d="M50.69,20.94s-.04.08-.07.12c.02-.04.05-.08.07-.12Z"/>
  <path class="st0" d="M50.85,20.44s-.02.09-.03.13c.01-.04.02-.09.03-.13Z"/>
  <path class="st3" d="M50.78,19.21s.02.09.04.13c-.01-.04-.02-.09-.04-.13Z"/>
  <path class="st6" d="M50.88,19.61c0,.05.01.1.02.15,0-.05,0-.1-.02-.15Z"/>
  <path class="st4" d="M50.9,20.02c0,.05,0,.1,0,.15,0-.05,0-.1,0-.15Z"/>
  <path class="st2" d="M50.61,18.82c.07.12.13.25.17.39-.05-.13-.1-.26-.17-.39Z"/>
  <path class="st7" d="M50.82,19.34c.03.09.05.18.06.27-.01-.09-.04-.18-.06-.27Z"/>
  <path class="st5" d="M50.9,19.76c0,.09,0,.17,0,.26,0-.09,0-.17,0-.26Z"/>
  <path class="st8" d="M50.83,20.57c-.04.12-.08.25-.14.36.06-.12.1-.24.14-.36Z"/>
  <path class="st1" d="M50.9,20.17c0,.09-.03.18-.05.27.02-.09.04-.18.05-.27Z"/>
  <g>
    <path class="st19" d="M43.27,1.33c-.73-1.27-2.37-1.71-3.64-.98L9.15,17.96c-1.27.73-1.71,2.37-.98,3.64l.7,1.22L43.98,2.55l-.7-1.22Z"/>
    <path class="st24" d="M52.97,21.64c.04-.05.09-.1.13-.16-.04.05-.08.11-.13.16Z"/>
    <polygon class="st22" points="13.85 24.8 10.98 26.46 13.85 24.8 13.85 24.8"/>
    <path class="st21" d="M30.71,25.53c-6.23,0-12.01-.27-16.85-.73l-2.88,1.66,7.16,12.4c.73,1.27,2.37,1.71,3.64.98l26.11-15.07c-4.9.48-10.82.76-17.18.76Z"/>
    <path class="st20" d="M52.87,21.77s.07-.09.1-.13c-.04.05-.08.09-.12.13,0,0,.01,0,.02,0Z"/>
    <path class="st23" d="M53.26,21.22c-.05.09-.1.18-.16.27.06-.09.11-.18.16-.27Z"/>
    <path class="st26" d="M53.26,21.22s.06-.09.08-.14c.07-.14.12-.28.16-.43.01-.05.02-.1.03-.15.02-.1.04-.21.05-.31,0-.06,0-.12,0-.18,0-.1,0-.2,0-.3,0-.06-.01-.12-.02-.18-.02-.11-.04-.21-.07-.32-.01-.05-.03-.1-.04-.15-.05-.15-.12-.31-.2-.45l-7.16-12.4-28.66,16.55c3.94.27,8.47.43,13.28.43,9.08,0,17.14-.55,22.14-1.39.04-.04.08-.09.12-.13.04-.05.09-.1.13-.16.06-.09.11-.18.16-.27Z"/>
    <path class="st10" d="M57.18,20.86c2.69.66,4.23,1.43,4.23,2.26,0,2.46-13.75,4.45-30.71,4.45S0,25.58,0,23.12c0-.82,1.54-1.59,4.23-2.26-.66.29-1.01.6-1.01.92,0,1.89,12.31,3.42,27.49,3.42s27.49-1.53,27.49-3.42c0-.32-.35-.63-1.01-.92"/>
  </g>
  <g>
    <path class="st25" d="M69.91,7.79v18.44h-3.25V7.79h3.25ZM78.86,13.9l-5,6.08,5.62,6.24h-4.12l-5.4-6.24,5.08-6.08h3.81Z"/>
    <path class="st27" d="M85.1,13.66c1.58,0,2.79.34,3.63,1.01s1.25,1.61,1.25,2.82v6.03c0,.47.19.7.57.7.16,0,.38-.07.67-.2s.53-.29.72-.47v1.87c-1.14.7-2.17,1.04-3.11,1.04-.58,0-1.03-.1-1.34-.29s-.53-.54-.65-1.03c-1.24.88-2.49,1.32-3.74,1.32-.89,0-1.65-.3-2.29-.9s-.96-1.32-.96-2.15c0-1.06.32-1.9.95-2.52s1.74-1.15,3.33-1.61l2.63-.77v-.57c0-1.21-.73-1.81-2.19-1.81-.75,0-1.49.17-2.23.51s-1.41.85-2.02,1.52v-2.92c1.35-1.06,2.94-1.6,4.79-1.6ZM83.12,22.93c0,.45.14.81.43,1.08s.64.41,1.06.41c.71,0,1.43-.33,2.14-.98v-3.25c-.91.31-1.62.6-2.13.87s-.89.55-1.14.83-.36.62-.36,1.03Z"/>
    <path class="st14" d="M100.77,13.66c.43,0,.86.1,1.27.29s.9.52,1.46.98l-1.16,2.84c-.94-.7-1.7-1.06-2.27-1.06-.5,0-1,.19-1.48.56s-.88.87-1.17,1.48-.44,1.23-.44,1.85v5.62h-3.25v-12.33h3.25v3.14h.05c.59-1.19,1.18-2.05,1.78-2.58s1.25-.8,1.97-.8Z"/>
    <path class="st13" d="M108.4,10.63h.26v3.27h4.22v2.45h-4.22v5.69c0,.55.17,1,.5,1.35s.79.51,1.37.51c.76,0,1.63-.27,2.61-.82v2.6c-1.17.52-2.27.78-3.3.78-1.39,0-2.47-.38-3.25-1.14s-1.17-1.78-1.17-3.08v-5.9h-1.93v-.53l4.9-5.2Z"/>
    <path class="st16" d="M118.24,7.79v18.44h-3.25V7.79h3.25ZM127.19,13.9l-5,6.08,5.62,6.24h-4.12l-5.4-6.24,5.08-6.08h3.81Z"/>
    <path class="st15" d="M130.73,8.2c.5,0,.93.18,1.29.54s.54.79.54,1.29-.18.91-.53,1.29-.79.56-1.3.56-.92-.19-1.29-.56-.55-.8-.55-1.29c0-.51.18-.94.55-1.3s.8-.53,1.28-.53ZM132.35,13.9v12.33h-3.25v-12.33h3.25Z"/>
    <path class="st18" d="M142.75,13.66c.43,0,.86.1,1.27.29s.9.52,1.46.98l-1.16,2.84c-.94-.7-1.7-1.06-2.27-1.06-.5,0-1,.19-1.48.56s-.88.87-1.17,1.48-.44,1.23-.44,1.85v5.62h-3.25v-12.33h3.25v3.14h.05c.59-1.19,1.18-2.05,1.78-2.58s1.25-.8,1.97-.8Z"/>
    <path class="st17" d="M151.44,13.66c1.58,0,2.79.34,3.63,1.01s1.25,1.61,1.25,2.82v6.03c0,.47.19.7.57.7.16,0,.38-.07.67-.2s.53-.29.72-.47v1.87c-1.14.7-2.17,1.04-3.11,1.04-.58,0-1.03-.1-1.34-.29s-.53-.54-.65-1.03c-1.24.88-2.49,1.32-3.74,1.32-.89,0-1.65-.3-2.29-.9s-.96-1.32-.96-2.15c0-1.06.32-1.9.95-2.52s1.74-1.15,3.33-1.61l2.63-.77v-.57c0-1.21-.73-1.81-2.19-1.81-.75,0-1.49.17-2.23.51s-1.41.85-2.02,1.52v-2.92c1.35-1.06,2.94-1.6,4.79-1.6ZM149.46,22.93c0,.45.14.81.43,1.08s.64.41,1.06.41c.71,0,1.43-.33,2.14-.98v-3.25c-.91.31-1.62.6-2.13.87s-.89.55-1.14.83-.36.62-.36,1.03Z"/>
    <path class="st12" d="M163.41,7.79v18.44h-3.25V7.79h3.25Z"/>
    <path class="st11" d="M171.19,13.66c1.58,0,2.79.34,3.63,1.01s1.25,1.61,1.25,2.82v6.03c0,.47.19.7.57.7.16,0,.38-.07.67-.2s.53-.29.72-.47v1.87c-1.14.7-2.17,1.04-3.11,1.04-.58,0-1.03-.1-1.34-.29s-.53-.54-.65-1.03c-1.24.88-2.49,1.32-3.74,1.32-.89,0-1.65-.3-2.29-.9s-.96-1.32-.96-2.15c0-1.06.32-1.9.95-2.52s1.74-1.15,3.33-1.61l2.63-.77v-.57c0-1.21-.73-1.81-2.19-1.81-.75,0-1.49.17-2.23.51s-1.41.85-2.02,1.52v-2.92c1.35-1.06,2.94-1.6,4.79-1.6ZM169.21,22.93c0,.45.14.81.43,1.08s.64.41,1.06.41c.71,0,1.43-.33,2.14-.98v-3.25c-.91.31-1.62.6-2.13.87s-.89.55-1.14.83-.36.62-.36,1.03Z"/>
  </g>
</svg>